<?xml version="1.0" encoding="UTF-8"?>
<svg width="42px" height="42px" viewBox="0 0 42 42" version="1.1" xmlns="http://www.w3.org/2000/svg" xmlns:xlink="http://www.w3.org/1999/xlink">
    <!-- Generator: Sketch 49.3 (51167) - http://www.bohemiancoding.com/sketch -->
    <title>Combined Shape</title>
    <desc>Created with Sketch.</desc>
    <defs></defs>
    <g id="Page-1" stroke="none" stroke-width="1" fill="none" fill-rule="evenodd">
        <g id="Sent" transform="translate(-167.000000, -244.000000)" fill="#FFFFFF">
            <path d="M188,286 C176.40202,286 167,276.59798 167,265 C167,253.40202 176.40202,244 188,244 C199.59798,244 209,253.40202 209,265 C209,276.59798 199.59798,286 188,286 Z M188.444003,252.704596 C188.3435,252.417242 188.117577,252.191316 187.830223,252.09081 C187.308906,251.908472 186.738482,252.183269 186.556144,252.704586 L178.331318,276.219945 C178.294201,276.326064 178.275245,276.437682 178.275245,276.550104 C178.275249,277.102389 178.722968,277.550101 179.275252,277.550097 L184.871673,277.550058 C185.946233,277.550051 186.82874,276.700935 186.870172,275.627174 L187.500023,259.304021 L188.361094,275.655196 C188.417032,276.717427 189.294638,277.550027 190.35834,277.55002 L195.724576,277.549983 C195.83699,277.549982 195.9486,277.531027 196.054711,277.493914 C196.57603,277.311582 196.850833,276.74116 196.668501,276.219841 L188.444003,252.704596 Z" id="Combined-Shape"></path>
        </g>
    </g>
</svg>