<?xml version="1.0" encoding="UTF-8"?>
<svg width="31px" height="29px" viewBox="0 0 31 29" version="1.1" xmlns="http://www.w3.org/2000/svg" xmlns:xlink="http://www.w3.org/1999/xlink">
    <!-- Generator: Sketch 49.3 (51167) - http://www.bohemiancoding.com/sketch -->
    <title>Send Button</title>
    <desc>Created with Sketch.</desc>
    <defs></defs>
    <g id="Page-1" stroke="none" stroke-width="1" fill="none" fill-rule="evenodd">
        <g id="Group-2" fill="#FFFFFF" fill-rule="nonzero">
            <g id="Send-Button">
                <path d="M14.5,0.5 C14.7761424,0.5 15,0.723857625 15,1 C15,1.27614237 14.7761424,1.5 14.5,1.5 C13.5244202,1.5 12.5631559,1.60737533 11.6282011,1.81815783 C11.3588197,1.87888898 11.0912106,1.70974454 11.0304795,1.44036315 C10.9697483,1.17098175 11.1388928,0.903372647 11.4082742,0.842641489 C12.4152853,0.615614104 13.4503063,0.5 14.5,0.5 Z M8.43194288,1.87994648 C8.68072896,1.76011286 8.97955428,1.86464948 9.0993879,2.11343556 C9.21922153,2.36222164 9.11468491,2.66104695 8.86589883,2.78088057 C7.99575901,3.20000374 7.17513103,3.71529839 6.41899203,4.31613742 C6.20279427,4.4879313 5.8882649,4.45193485 5.71647101,4.23573709 C5.54467713,4.01953932 5.58067358,3.70500995 5.79687135,3.53321606 C6.61101462,2.88628599 7.49473062,2.33137666 8.43194288,1.87994648 Z M3.5658199,5.75599657 C3.73841637,5.540439 4.0530774,5.50561214 4.26863498,5.67820861 C4.48419255,5.85080509 4.51901941,6.16546612 4.34642293,6.38102369 C3.74267359,7.13505268 3.2242474,7.9539055 2.80183403,8.82260342 C2.68107662,9.07094242 2.38186486,9.17436773 2.13352586,9.05361032 C1.88518686,8.93285291 1.78176155,8.63364115 1.90251896,8.38530215 C2.35748758,7.44965396 2.91576253,6.56786015 3.5658199,5.75599657 Z M0.870049119,11.2891457 C0.933144958,11.0203084 1.20222998,10.8535219 1.47106734,10.9166177 C1.7399047,10.9797136 1.90669116,11.2487986 1.84359532,11.517636 C1.62454905,12.4509435 1.50882222,13.4112489 1.5004852,14.3864507 C1.49812454,14.662583 1.2723614,14.8845188 0.996229113,14.8821581 C0.720096829,14.8797974 0.498161078,14.6540343 0.500521739,14.377902 C0.509493089,13.3285016 0.634108995,12.2944342 0.870049119,11.2891457 Z M0.826100255,17.5174078 C0.766843882,17.2476982 0.937449969,16.9810185 1.20715962,16.9217622 C1.47686926,16.8625058 1.74354891,17.0331119 1.80280529,17.3028215 C2.01067263,18.2489447 2.32347,19.1648282 2.73425019,20.0362458 C2.85199536,20.286027 2.74495894,20.5839661 2.49517766,20.7017113 C2.24539638,20.8194564 1.94745733,20.71242 1.82971217,20.4626387 C1.38713045,19.5237583 1.05007571,18.5368482 0.826100255,17.5174078 Z M3.47690278,23.1317878 C3.30650989,22.9144842 3.34453857,22.6001941 3.56184221,22.4298012 C3.77914585,22.2594083 4.09343599,22.297437 4.26382889,22.5147406 C4.85985823,23.2748624 5.53886189,23.9671352 6.28730626,24.5778258 C6.50126286,24.752403 6.5331862,25.0673718 6.35860904,25.2813284 C6.18403188,25.495285 5.86906304,25.5272084 5.65510644,25.3526312 C4.84942392,24.6952373 4.11852674,23.9500568 3.47690278,23.1317878 Z M8.26279487,27.0371672 C8.01565014,26.913984 7.91515946,26.6137739 8.03834264,26.3666292 C8.16152582,26.1194845 8.46173591,26.0189938 8.70888063,26.142177 C9.57154566,26.5721511 10.4805881,26.9050159 11.42162,27.1334821 C11.689967,27.1986321 11.8546906,27.4689848 11.7895406,27.7373318 C11.7243907,28.0056787 11.454038,28.1704024 11.185691,28.1052524 C10.1717168,27.859077 9.1922026,27.5004075 8.26279487,27.0371672 Z M14.3466941,28.4991773 C14.0705677,28.4962126 13.8491263,28.2699645 13.8520911,27.993838 C13.8550558,27.7177116 14.0813039,27.4962702 14.3574304,27.499235 C14.427098,27.4998611 14.427098,27.4998611 14.4967682,27.4999996 C15.4275678,27.5 16.3426661,27.4029308 17.2349417,27.211917 C17.5049661,27.1541116 17.7707246,27.326149 17.82853,27.5961733 C17.8863355,27.8661977 17.714298,28.1319562 17.4442737,28.1897616 C16.483271,28.3954882 15.4980087,28.5 14.4966509,28.4999996 C14.4216125,28.4998506 14.4216125,28.4998506 14.3466941,28.4991773 Z M20.4289349,27.1861206 C20.1788399,27.3031979 19.8811879,27.1953657 19.7641106,26.9452707 C19.6470333,26.6951757 19.7548655,26.3975237 20.0049605,26.2804464 C20.8799174,25.8708517 21.7062835,25.3644911 22.4690591,24.7718277 C22.6871167,24.6024007 23.001235,24.6418236 23.170662,24.8598812 C23.3400889,25.0779388 23.300666,25.3920571 23.0826084,25.5614841 C22.2612954,26.19963 21.3713684,26.7449379 20.4289349,27.1861206 Z M25.3374935,23.3634138 C25.1625527,23.5770732 24.8475301,23.608461 24.6338706,23.4335203 C24.4202112,23.2585796 24.3888234,22.9435569 24.5637641,22.7298975 C25.1757551,21.9824576 25.7031549,21.1692677 26.135104,20.3052883 C26.2585894,20.0582944 26.5589221,19.9581709 26.805916,20.0816563 C27.0529099,20.2051416 27.1530334,20.5054743 27.029548,20.7524682 C26.564325,21.6830018 25.9964064,22.5586669 25.3374935,23.3634138 Z M28.0944321,17.8585605 C28.0284033,18.1266925 27.7575124,18.2905296 27.4893804,18.2245008 C27.2212483,18.158472 27.0574112,17.8875811 27.12344,17.6194491 C27.3527403,16.6882983 27.478846,15.7292881 27.4975575,14.7546521 C27.5028581,14.4785606 27.7309714,14.2590411 28.0070629,14.2643417 C28.2831544,14.2696422 28.5026738,14.4977555 28.4973733,14.773847 C28.4772355,15.8227726 28.3414315,16.8555368 28.0944321,17.8585605 Z" id="Oval" opacity="0.5"></path>
                <polygon id="Rectangle" opacity="0.5" transform="translate(27.887755, 12.101836) rotate(-320.000000) translate(-27.887755, -12.101836) " points="26.6507268 14.3388642 25.6507268 14.3388642 25.6507268 9.86480818 30.1247829 9.86480818 30.1247829 10.8648082 26.6507268 10.8648082"></polygon>
                <path d="M15.4093139,8.28889891 C15.3657344,8.16501822 15.2677711,8.06761965 15.1431704,8.02429068 C14.9171201,7.94568326 14.6697764,8.06415052 14.5907121,8.28889459 L11.024314,18.4265605 C11.0082196,18.4723092 11,18.5204287 11,18.5688947 C11.0000017,18.8069894 11.1941389,19.0000017 11.4336168,19 L13.8603023,18.9999832 C14.3262463,18.9999802 14.5727467,18.6459998 14.5907121,18.1830925 L14.9999911,11.1339656 L15.4093139,18.1830925 C15.4335694,18.6410291 15.778161,18.9999698 16.2393968,18.9999668 L18.5662709,18.9999509 C18.6150151,18.9999504 18.6634108,18.9917788 18.7094219,18.975779 C18.9354731,18.8971742 19.0546314,18.6512606 18.9755698,18.4265156 L15.4093139,8.28889891 Z" id="Combined-Shape" transform="translate(15.000000, 13.500000) rotate(-315.000000) translate(-15.000000, -13.500000) "></path>
            </g>
        </g>
    </g>
</svg>