<?xml version="1.0" encoding="UTF-8"?>
<svg width="121px" height="117px" viewBox="0 0 121 117" version="1.1" xmlns="http://www.w3.org/2000/svg" xmlns:xlink="http://www.w3.org/1999/xlink">
    <!-- Generator: Sketch 49.3 (51167) - http://www.bohemiancoding.com/sketch -->
    <title>Token</title>
    <desc>Created with Sketch.</desc>
    <defs></defs>
    <g id="Page-1" stroke="none" stroke-width="1" fill="none" fill-rule="evenodd" opacity="0.0793138587">
        <g id="Home" transform="translate(0.000000, -50.000000)" fill="#FFFFFF">
            <g id="Combined-Shape" transform="translate(0.000000, 50.000000)">
                <path d="M42.5,140 C-0.854352859,140 -36,104.854353 -36,61.5 C-36,18.1456471 -0.854352859,-17 42.5,-17 C85.8543529,-17 121,18.1456471 121,61.5 C121,104.854353 85.8543529,140 42.5,140 Z M47.9243697,56.8892356 L63,56.8892356 L63,40.9625585 L47.9243697,40.9625585 L47.9243697,24 L27.1792717,24 L27.1792717,40.9625585 L17,40.9625585 L17,56.8892356 L27.3081232,56.8892356 L27.3081232,84.0811232 C27.3081232,87.5340786 27.694674,90.6632725 28.4677871,93.4687988 C29.2409002,96.274325 30.5079277,98.6913575 32.2689076,100.719969 C34.0298874,102.74858 36.370667,104.302387 39.2913165,105.381435 C42.2119661,106.460484 45.8197731,107 50.1148459,107 C52.3482838,107 54.5816882,106.805774 56.8151261,106.417317 C59.0485639,106.028859 60.8954175,105.575666 62.3557423,105.057722 L62.0980392,89.5195008 C61.3249261,89.8647963 60.3585492,90.1237641 59.1988796,90.2964119 C58.0392099,90.4690596 56.9439827,90.5553822 55.9131653,90.5553822 C52.9066143,90.5553822 50.8235352,89.8000596 49.6638655,88.2893916 C48.5041959,86.7787236 47.9243697,84.5127556 47.9243697,81.4914197 L47.9243697,56.8892356 Z" id="Token"></path>
            </g>
        </g>
    </g>
</svg>