<?xml version="1.0" encoding="utf-8"?>
<!-- Generator: Adobe Illustrator 22.0.1, SVG Export Plug-In . SVG Version: 6.00 Build 0)  -->
<svg version="1.1" id="Layer_1" xmlns="http://www.w3.org/2000/svg" xmlns:xlink="http://www.w3.org/1999/xlink" x="0px" y="0px"
	 viewBox="0 0 448 512" style="enable-background:new 0 0 448 512;" xml:space="preserve">
<style type="text/css">
	.st0{fill:none;stroke:#000000;stroke-width:20;stroke-linejoin:round;stroke-miterlimit:10;}
	.st1{fill:#FFFFFF;stroke:#000000;stroke-width:20;stroke-miterlimit:10;}
	.st2{fill:#FFFFFF;stroke:#000000;stroke-width:20;stroke-linejoin:round;stroke-miterlimit:10;}
</style>
<g>
	<path class="st0" d="M351.3,360.2c-24.1-29.1-77.5-49.4-139.4-49.4S96.6,331,72.5,360.2H58.8v34.9c0,46.6,68.6,84.3,153.1,84.3
		S365,441.6,365,395.1v-34.9H351.3z"/>
	<ellipse class="st1" cx="211.9" cy="360.2" rx="153.1" ry="84.3"/>
</g>
<g>
	<path class="st2" d="M408.4,235c-24.1-29.1-77.5-49.4-139.4-49.4S153.7,205.9,129.6,235h-13.7v34.9c0,46.6,68.6,84.3,153.1,84.3
		s153.1-37.7,153.1-84.3V235H408.4z"/>
	<ellipse class="st1" cx="269" cy="235" rx="153.1" ry="84.3"/>
</g>
<g>
	<path class="st2" d="M318.4,133.2c-24.1-29.1-77.5-49.4-139.4-49.4S63.7,104.1,39.6,133.2H25.9v34.9c0,46.6,68.6,84.3,153.1,84.3
		s153.1-37.7,153.1-84.3v-34.9H318.4z"/>
	<ellipse class="st1" cx="179" cy="133.2" rx="153.1" ry="84.3"/>
</g>
</svg>
