<?xml version="1.0" encoding="utf-8"?>
<!-- Generator: Adobe Illustrator 22.0.1, SVG Export Plug-In . SVG Version: 6.00 Build 0)  -->
<svg version="1.1" id="Layer_1" xmlns="http://www.w3.org/2000/svg" xmlns:xlink="http://www.w3.org/1999/xlink" x="0px" y="0px"
	 viewBox="0 0 448 512" style="enable-background:new 0 0 448 512;" xml:space="preserve">
<style type="text/css">
	.st0{fill:none;}
</style>
<path class="st0" d="M80,416c-64,0-64,64,0,64h324.3c-3.1-20.4-2.9-45.2,0-64H80z"/>
<path d="M448,392V24c0-13.3-10.7-24-24-24H80C35.8,0,0,35.8,0,80v352c0,44.2,35.8,80,80,80h356c6.6,0,12-5.4,12-12v-8
	c0-6.6-5.4-12-12-12h-3.3c-4-20.2-3.2-49.7,0.4-65.8C441.8,410.6,448,402,448,392z M404.3,480H80c-64,0-64-64,0-64h324.3
	C401.4,434.8,401.2,459.6,404.3,480z M416,384H128H96H80c-18,0-34.6,6-48,16V80c0-26.5,21.5-48,48-48h16h32h288V384z"/>
</svg>
